{"title":"Kosem Soultan dvd-5 greek subs","uid":13689358,"size":2093976194,"categoryP":"video","categoryS":"tv_shows","magnet":"?xt=urn:btih:42eb0a3c91f1911253856e9de1ff59d533edd07a&amp;dn=Kosem+Soultan+dvd-5+greek+subs&amp;tr=udp%3A%2F%2Ftracker.leechers-paradise.org%3A6969&amp;tr=udp%3A%2F%2Fzer0day.ch%3A1337&amp;tr=udp%3A%2F%2Fopen.demonii.com%3A1337&amp;tr=udp%3A%2F%2Ftracker.coppersurfer.tk%3A6969&amp;tr=udp%3A%2F%2Fexodus.desync.com%3A6969","seeders":2,"leechers":0,"uploader":"emmanoue","files":1,"time":1456583969,"description":"Greek Subtitles! Enjoy it and...please, seed!\r\n\r\nGeneral\r\nComplete name                            : Kosem Soultan dvd-5 greek subs.avi\r\nFormat                                   : AVI\r\nFormat/Info                              : Audio Video Interleave\r\nFormat profile                           : OpenDML\r\nFile size                                : 1.95 GiB\r\nDuration                                 : 1h 34mn\r\nOverall bit rate                         : 2 950 Kbps\r\nMovie name                               : 5345.Title2\r\nWriting application                      : Lavf56.9.100\r\nOriginal source form/Name                : 5345\r\n\r\nVideo\r\nID                                       : 0\r\nFormat                                   : MPEG-4 Visual\r\nFormat profile                           : Advanced   \r\nFormat settings, BVOP                    : 2\r\nFormat settings, QPel                    : No\r\nFormat settings, GMC                     : No warppoints\r\nFormat settings, Matrix                  : Default (MPEG)\r\nMuxing mode                              : Packed bitstream\r\nCodec ID                                 : XVID\r\nCodec ID/Hint                            : XviD\r\nDuration                                 : 1h 34mn\r\nBit rate                                 : 2 748 Kbps\r\nWidth                                    : 1 024 pixels\r\nHeight                                   : 576 pixels\r\nDisplay aspect ratio                     : 16:9\r\nFrame rate                               : 25.000 fps\r\nColor space                              : YUV\r\nChroma subsampling                       : 4:2:0\r\nBit depth                                : 8 bits\r\nScan type                                : Progressive\r\nCompression mode                         : Lossy\r\nBits/(Pixel*Frame)                       : 0.186\r\nStream size                              : 1.82 GiB (93%)\r\nWriting library                          : XviD 64\r\n\r\nAudio\r\nID                                       : 1\r\nFormat                                   : AC-3\r\nFormat/Info                              : Audio Coding 3\r\nMode extension                           : CM (complete main)\r\nFormat settings, Endianness              : Big\r\nCodec ID                                 : 2000\r\nDuration                                 : 1h 34mn\r\nBit rate mode                            : Constant\r\nBit rate                                 : 192 Kbps\r\nChannel(s)                               : 2 channels\r\nChannel positions                        : Front: L R\r\nSampling rate                            : 48.0 KHz\r\nBit depth                                : 16 bits\r\nCompression mode                         : Lossy\r\nStream size                              : 130 MiB (7%)\r\nAlignment                                : Aligned on interleaves\r\nInterleave, duration                     : 32 ms (0.80 video frame)","torrent":{"xt":"urn:btih:42eb0a3c91f1911253856e9de1ff59d533edd07a","amp;dn":"Kosem+Soultan+dvd-5+greek+subs","amp;tr":["udp%3A%2F%2Ftracker.leechers-paradise.org%3A6969","udp%3A%2F%2Fzer0day.ch%3A1337","udp%3A%2F%2Fopen.demonii.com%3A1337","udp%3A%2F%2Ftracker.coppersurfer.tk%3A6969","udp%3A%2F%2Fexodus.desync.com%3A6969"],"infoHash":"42eb0a3c91f1911253856e9de1ff59d533edd07a","infoHashBuffer":{"type":"Buffer","data":[66,235,10,60,145,241,145,18,83,133,110,157,225,255,89,213,51,237,208,122]},"announce":[],"urlList":[]}}